<svg width="75" height="102" viewBox="0 0 75 102" fill="none" xmlns="http://www.w3.org/2000/svg">
<rect x="75.5" y="0.5" width="101" height="75" rx="15" transform="rotate(90 75.5 0.5)" fill="black"/>
<path fill-rule="evenodd" clip-rule="evenodd" d="M45.5 44.5C45.5 43.9477 45.0523 43.5 44.5 43.5L30.5 43.5C29.9477 43.5 29.5 43.9477 29.5 44.5L29.5 58.5C29.5 59.0523 29.9477 59.5 30.5 59.5L44.5 59.5C45.0523 59.5 45.5 59.0523 45.5 58.5L45.5 44.5ZM44.5 41.5C46.1569 41.5 47.5 42.8431 47.5 44.5L47.5 58.5C47.5 60.1569 46.1569 61.5 44.5 61.5L30.5 61.5C28.8431 61.5 27.5 60.1569 27.5 58.5L27.5 44.5C27.5 42.8431 28.8431 41.5 30.5 41.5L44.5 41.5Z" fill="white"/>
<path fill-rule="evenodd" clip-rule="evenodd" d="M41.2071 47.7929C41.5976 48.1834 41.5976 48.8166 41.2071 49.2071L35.2071 55.2071C34.8166 55.5976 34.1834 55.5976 33.7929 55.2071C33.4024 54.8166 33.4024 54.1834 33.7929 53.7929L39.7929 47.7929C40.1834 47.4024 40.8166 47.4024 41.2071 47.7929Z" fill="white"/>
<path fill-rule="evenodd" clip-rule="evenodd" d="M41.2071 55.2071C40.8166 55.5976 40.1834 55.5976 39.7929 55.2071L33.7929 49.2071C33.4024 48.8166 33.4024 48.1834 33.7929 47.7929C34.1834 47.4024 34.8166 47.4024 35.2071 47.7929L41.2071 53.7929C41.5976 54.1834 41.5976 54.8166 41.2071 55.2071Z" fill="white"/>
</svg>
