<svg width="13" height="16" viewBox="0 0 13 16" fill="none" xmlns="http://www.w3.org/2000/svg">
<path fill-rule="evenodd" clip-rule="evenodd" d="M6.5 5.33333C7.01284 5.33333 7.42857 5.7313 7.42857 6.22222V15.1111C7.42857 15.602 7.01284 16 6.5 16C5.98716 16 5.57143 15.602 5.57143 15.1111V6.22222C5.57143 5.7313 5.98716 5.33333 6.5 5.33333Z" fill="black"/>
<path fill-rule="evenodd" clip-rule="evenodd" d="M12.0714 0C12.5843 0 13 0.397969 13 0.888889V15.1111C13 15.602 12.5843 16 12.0714 16C11.5586 16 11.1429 15.602 11.1429 15.1111V0.888889C11.1429 0.397969 11.5586 0 12.0714 0Z" fill="black"/>
<path fill-rule="evenodd" clip-rule="evenodd" d="M0.928571 10.6667C1.44141 10.6667 1.85714 11.0646 1.85714 11.5556V15.1111C1.85714 15.602 1.44141 16 0.928571 16C0.415736 16 0 15.602 0 15.1111V11.5556C0 11.0646 0.415736 10.6667 0.928571 10.6667Z" fill="black"/>
</svg>
