<svg width="22" height="24" viewBox="0 0 22 24" fill="none" xmlns="http://www.w3.org/2000/svg">
<path fill-rule="evenodd" clip-rule="evenodd" d="M10.5559 2.10402C10.5556 2.10417 10.5553 2.10432 10.555 2.10447L2.55726 6.10337L2.55505 6.10447C2.38844 6.18726 2.24823 6.31488 2.15019 6.47299C2.05218 6.63105 2.00018 6.8133 2.00005 6.99928C2.00005 6.99922 2.00005 6.99934 2.00005 6.99928V16.5259C1.99875 16.7123 2.04954 16.8953 2.14672 17.0543C2.24374 17.2131 2.38313 17.3416 2.5492 17.4255C2.54893 17.4253 2.54948 17.4256 2.5492 17.4255L10.5473 21.4245C10.6862 21.494 10.8397 21.5304 10.995 21.5304C11.1504 21.5304 11.3036 21.4942 11.4425 21.4247L19.4428 17.4245L19.445 17.4234C19.6117 17.3406 19.7519 17.213 19.8499 17.0549C19.948 16.8968 19.9999 16.7145 20 16.5284V6.99947C19.9999 6.81343 19.948 6.6311 19.8499 6.47299C19.7519 6.31488 19.6117 6.18726 19.445 6.10447L19.4428 6.10337L11.445 2.10447C11.4447 2.10432 11.4445 2.10417 11.4442 2.10402C11.3061 2.0356 11.1541 2 11 2C10.846 2 10.694 2.0356 10.5559 2.10402ZM11.89 1.20894L12.335 0.313408C11.9202 0.107272 11.4633 0 11 0C10.5368 0 10.0799 0.107272 9.66505 0.313408L9.66284 0.314512L1.66505 4.31341C1.66464 4.31361 1.66423 4.31382 1.66381 4.31402C1.16454 4.5624 0.744363 4.94504 0.450468 5.41898C0.156331 5.8933 0.000344766 6.44028 4.85903e-05 6.99841L4.84711e-05 16.5158C-0.00312172 17.0736 0.149273 17.6212 0.440154 18.0972C0.731701 18.5743 1.15077 18.9604 1.65007 19.212L1.65283 19.2134L9.65255 23.2132C10.0693 23.4218 10.529 23.5304 10.995 23.5304C11.461 23.5304 11.9206 23.4218 12.3373 23.2134C12.3374 23.2133 12.3372 23.2134 12.3373 23.2134L20.335 19.2145C20.3354 19.2143 20.3357 19.2141 20.336 19.214C20.8354 18.9656 21.2557 18.5829 21.5496 18.1089C21.8438 17.6346 21.9998 17.0876 22 16.5295V6.99894C21.9998 6.44081 21.8438 5.8933 21.5496 5.41898C21.2557 4.94505 20.8356 4.56243 20.3363 4.31404C20.3359 4.31383 20.3355 4.31362 20.335 4.31341L12.3373 0.314512L11.89 1.20894Z" fill="black"/>
<path fill-rule="evenodd" clip-rule="evenodd" d="M0.425621 5.47173C0.67261 4.97775 1.27328 4.77752 1.76726 5.02451L11 9.64091L20.2328 5.02451C20.7268 4.77752 21.3275 4.97775 21.5745 5.47173C21.8215 5.9657 21.6212 6.56638 21.1273 6.81337L11.4473 11.6534C11.1657 11.7941 10.8344 11.7941 10.5528 11.6534L0.872835 6.81337C0.378856 6.56638 0.178632 5.9657 0.425621 5.47173Z" fill="black"/>
<path fill-rule="evenodd" clip-rule="evenodd" d="M11 9.75894C11.5523 9.75894 12 10.2067 12 10.7589V22.5189C12 23.0712 11.5523 23.5189 11 23.5189C10.4478 23.5189 10 23.0712 10 22.5189V10.7589C10 10.2067 10.4478 9.75894 11 9.75894Z" fill="black"/>
<path fill-rule="evenodd" clip-rule="evenodd" d="M5.10562 2.81173C5.35261 2.31775 5.95328 2.11752 6.44726 2.36451L16.4473 7.36451C16.9412 7.6115 17.1415 8.21217 16.8945 8.70615C16.6475 9.20013 16.0468 9.40036 15.5528 9.15337L5.55283 4.15337C5.05886 3.90638 4.85863 3.3057 5.10562 2.81173Z" fill="black"/>
</svg>
