<svg width="47" height="20" viewBox="0 0 47 20" fill="none" xmlns="http://www.w3.org/2000/svg">
<path d="M24.403 7.687C22.074 7.687 20.51 9.574 20.51 11.92C20.51 14.249 22.176 16.119 24.505 16.119C26.001 16.119 27.157 15.388 27.837 14.232L26.766 13.705C26.273 14.47 25.525 14.929 24.505 14.929C22.975 14.929 21.955 13.824 21.785 12.345H28.092C28.092 12.209 28.109 12.056 28.109 11.92C28.109 9.574 26.749 7.687 24.403 7.687ZM24.403 8.877C25.814 8.877 26.613 9.829 26.851 11.121H21.836C22.091 9.829 23.009 8.877 24.403 8.877ZM35.7542 4.1V8.928C35.1422 8.163 34.2242 7.687 33.0512 7.687C30.7052 7.687 29.2092 9.574 29.2092 11.92C29.2092 14.249 30.7052 16.119 33.0512 16.119C34.2242 16.119 35.1422 15.66 35.7542 14.895V16H36.9782V4.1H35.7542ZM33.0512 14.929C31.3682 14.929 30.4502 13.603 30.4502 11.92C30.4502 10.237 31.3682 8.877 33.0512 8.877C34.7342 8.877 35.7032 10.237 35.7032 11.92C35.7032 13.603 34.7342 14.929 33.0512 14.929ZM38.9161 16H40.1571V7.806H38.9161V16ZM39.5281 6.242C39.9191 6.242 40.2251 5.936 40.2251 5.562C40.2251 5.171 39.9191 4.865 39.5281 4.865C39.1541 4.865 38.8481 5.171 38.8481 5.562C38.8481 5.936 39.1541 6.242 39.5281 6.242ZM45.706 14.555C45.196 14.98 44.516 14.963 44.244 14.742C43.955 14.487 43.921 14.096 43.921 13.416C43.921 12.804 43.921 10.815 43.921 9.047H45.655V7.806H43.921C43.921 6.684 43.921 5.664 43.921 5.664L42.68 6.004C42.68 6.004 42.68 6.667 42.68 7.806H41.422V9.047H42.68C42.68 10.764 42.68 12.702 42.68 13.45C42.68 15.337 43.343 16 44.414 16.119C44.941 16.187 45.757 15.966 46.335 15.49L45.706 14.555Z" fill="white"/>
<path fill-rule="evenodd" clip-rule="evenodd" d="M7.90503 4.1997C8.17839 3.93343 8.62161 3.93343 8.89497 4.1997L11.695 6.92697C11.9683 7.19324 11.9683 7.62494 11.695 7.89121L3.99497 15.3912C3.8637 15.5191 3.68565 15.5909 3.5 15.5909H0.7C0.313401 15.5909 0 15.2856 0 14.9091V12.1818C0 12.001 0.0737498 11.8276 0.205025 11.6997L7.90503 4.1997ZM1.4 12.4642V14.2273H3.21005L10.2101 7.40909L8.4 5.64605L1.4 12.4642Z" fill="white"/>
<path fill-rule="evenodd" clip-rule="evenodd" d="M0 18.3182C0 17.9416 0.313401 17.6364 0.7 17.6364H13.3C13.6866 17.6364 14 17.9416 14 18.3182C14 18.6947 13.6866 19 13.3 19H0.7C0.313401 19 0 18.6947 0 18.3182Z" fill="white"/>
</svg>
