<svg width="16" height="16" viewBox="0 0 16 16" fill="none" xmlns="http://www.w3.org/2000/svg">
<path fill-rule="evenodd" clip-rule="evenodd" d="M2.25 1.6C2.05109 1.6 1.86032 1.68429 1.71967 1.83431C1.57902 1.98434 1.5 2.18783 1.5 2.4V13.6C1.5 13.8122 1.57902 14.0157 1.71967 14.1657C1.86032 14.3157 2.05109 14.4 2.25 14.4H5.25C5.66421 14.4 6 14.7582 6 15.2C6 15.6418 5.66421 16 5.25 16H2.25C1.65326 16 1.08097 15.7471 0.65901 15.2971C0.237053 14.847 0 14.2365 0 13.6V2.4C0 1.76348 0.237053 1.15303 0.65901 0.702944C1.08097 0.252856 1.65326 0 2.25 0H5.25C5.66421 0 6 0.358172 6 0.8C6 1.24183 5.66421 1.6 5.25 1.6H2.25Z" fill="black"/>
<path fill-rule="evenodd" clip-rule="evenodd" d="M10.2511 3.24408C10.5858 2.91864 11.1285 2.91864 11.4632 3.24408L15.7489 7.41074C16.0837 7.73618 16.0837 8.26382 15.7489 8.58926L11.4632 12.7559C11.1285 13.0814 10.5858 13.0814 10.2511 12.7559C9.91632 12.4305 9.91632 11.9028 10.2511 11.5774L13.9307 8L10.2511 4.42259C9.91632 4.09715 9.91632 3.56951 10.2511 3.24408Z" fill="black"/>
<path fill-rule="evenodd" clip-rule="evenodd" d="M5 8C5 7.44772 5.35178 7 5.78571 7H15.2143C15.6482 7 16 7.44772 16 8C16 8.55229 15.6482 9 15.2143 9H5.78571C5.35178 9 5 8.55229 5 8Z" fill="black"/>
</svg>
