<svg width="16" height="11" viewBox="0 0 16 11" fill="none" xmlns="http://www.w3.org/2000/svg">
<path d="M15.7807 2.28516C15.5917 2.1274 15.3249 2.09416 15.1014 2.20055L11.6813 3.82855L8.47216 0.210711C8.35348 0.0768779 8.18119 0 8.00001 0C7.81882 0 7.64657 0.0768779 7.52785 0.210711L4.31873 3.82852L0.898601 2.20052C0.675069 2.09416 0.408382 2.12737 0.219319 2.28513C0.0302569 2.44289 -0.0452431 2.69521 0.0270381 2.92774L2.40204 10.5666C2.48207 10.8241 2.72485 11 3.00001 11H13C13.2751 11 13.5179 10.8241 13.5979 10.5667L15.9729 2.92777C16.0453 2.69524 15.9698 2.44292 15.7807 2.28516ZM12.5367 9.77778H3.46323L1.63976 3.9127L4.20294 5.13281C4.45744 5.25394 4.76326 5.19276 4.94866 4.98376L8.00001 1.54382L11.0514 4.98376C11.2368 5.19279 11.5427 5.25391 11.7971 5.13281L14.3603 3.9127L12.5367 9.77778Z" fill="#F3C628"/>
</svg>
