<svg width="150" height="37" viewBox="0 0 150 37" fill="none" xmlns="http://www.w3.org/2000/svg">
<mask id="path-1-outside-1" maskUnits="userSpaceOnUse" x="0" y="7" width="26" height="24" fill="black">
<rect fill="white" y="7" width="26" height="24"/>
<path d="M6.86581 15.9599C6.45606 11.0958 10.2804 9.71084 12.2439 9.6264L15.061 10.1331L17.1098 11.6531L18.1341 13.6799L18.3902 16.9733L19.1585 16.7199L20.439 17.2266V18.24L19.9268 19L18.3902 19.76L18.9024 21.0268L20.439 22.5468L22.4878 23.8135L21.9756 24.5735L20.1829 25.3336L19.4146 26.6003L18.6463 26.8536H16.5976L12.7561 28.3736H11.7317L8.40244 26.8536H5.84146L5.07317 25.8402L4.81707 25.3336L2.76829 24.5735L2.5122 23.8135L3.02439 23.3068L5.32927 22.0401L6.60976 20.2667L6.35366 19.5067L4.81707 18.7467L4.30488 17.7333L5.07317 16.9733H6.60976L6.86581 15.9599Z"/>
<path d="M12.4907 10.1089C15.3092 10.1098 17.6569 12.431 17.6603 15.2259C17.6611 15.8805 17.6815 16.4833 17.7189 17.0386C17.7419 17.3812 18.03 17.6351 18.3603 17.6351C18.4089 17.6351 18.4585 17.6296 18.5083 17.6181L19.3912 17.4134C19.4288 17.4046 19.4665 17.4005 19.5037 17.4005C19.728 17.4005 19.9345 17.552 19.9848 17.7765C20.056 18.0937 19.8763 18.4143 19.5656 18.5221L18.2253 19.0573C17.887 19.1924 17.7052 19.5567 17.8005 19.9051C18.8758 23.8375 21.8791 23.4286 21.8791 23.9409C21.8791 24.5842 19.6153 24.6751 19.4108 24.8774C19.2063 25.0798 19.402 26.0618 18.945 26.2519C18.8589 26.2878 18.7365 26.3002 18.5872 26.3002C18.243 26.3002 17.7563 26.2338 17.2432 26.2338C16.7982 26.2338 16.3334 26.2838 15.9248 26.4705C14.8407 26.9659 13.7956 27.8912 12.5 27.8912C11.2044 27.8912 10.1593 26.9659 9.07529 26.4705C8.66657 26.2837 8.20191 26.2338 7.75683 26.2338C7.24382 26.2338 6.75696 26.3002 6.41282 26.3002C6.26364 26.3002 6.14113 26.2877 6.05504 26.2519C5.59809 26.0618 5.79372 25.0798 5.58921 24.8774C5.3847 24.6751 3.12098 24.5842 3.12098 23.9409C3.12098 23.4285 6.12428 23.8375 7.19952 19.9051C7.29481 19.5567 7.11307 19.1924 6.77467 19.0572L5.43442 18.522C5.12364 18.4142 4.94397 18.0937 5.01518 17.7765C5.06553 17.5519 5.27201 17.4004 5.49626 17.4004C5.53347 17.4004 5.57123 17.4046 5.6088 17.4133L6.49173 17.6181C6.54151 17.6296 6.59105 17.6351 6.6397 17.6351C6.96999 17.6351 7.25808 17.3812 7.28113 17.0386C7.31848 16.4833 7.33893 15.8805 7.33973 15.2259C7.34314 12.431 9.67219 10.1099 12.4907 10.1089ZM12.4911 9H12.4902C11.649 9.00027 10.8294 9.16749 10.0545 9.49706C9.31069 9.81337 8.64124 10.2644 8.06479 10.8376C7.48909 11.4101 7.03604 12.0747 6.71822 12.8129C6.38775 13.5806 6.21969 14.392 6.21866 15.2245C6.21817 15.6333 6.2096 16.03 6.1931 16.4098L5.86461 16.3336C5.74408 16.3057 5.62015 16.2915 5.49635 16.2914C5.13884 16.2914 4.78618 16.4109 4.50333 16.628C4.20825 16.8545 4.00131 17.177 3.92074 17.5362C3.72896 18.3911 4.20614 19.2541 5.03307 19.5576L6.01671 19.9504C5.36537 21.9281 4.16435 22.3071 3.35558 22.5623C3.14098 22.6301 2.95562 22.6886 2.77913 22.7752C2.07591 23.1205 2 23.7054 2 23.9409C2 24.3918 2.21577 24.8034 2.60762 25.0996C2.80271 25.2472 3.0444 25.3689 3.34644 25.4717C3.7581 25.6119 4.23533 25.7009 4.62319 25.7722C4.64193 25.9144 4.66942 26.0671 4.71574 26.221C4.90805 26.8603 5.31389 27.1465 5.62051 27.274C5.91142 27.3951 6.21203 27.4091 6.41282 27.4091C6.60921 27.4091 6.81682 27.3938 7.03662 27.3777C7.27243 27.3604 7.51627 27.3426 7.75683 27.3426C8.12962 27.3426 8.40713 27.3866 8.60519 27.4771C8.87714 27.6014 9.16555 27.769 9.4709 27.9463C10.321 28.4402 11.2844 29 12.5 29C13.7156 29 14.679 28.4402 15.5291 27.9463C15.8345 27.7689 16.1229 27.6014 16.3949 27.4771C16.5929 27.3866 16.8704 27.3426 17.2432 27.3426C17.4838 27.3426 17.7276 27.3605 17.9634 27.3777C18.1832 27.3938 18.3908 27.4091 18.5872 27.4091C18.788 27.4091 19.0885 27.3951 19.3795 27.274C19.6861 27.1465 20.0919 26.8603 20.2843 26.221C20.3306 26.0671 20.3581 25.9144 20.3768 25.7722C20.7647 25.7009 21.2419 25.6119 21.6536 25.4717C21.9556 25.3689 22.1973 25.2472 22.3924 25.0996C22.7842 24.8034 23 24.3918 23 23.9409C23 23.7054 22.9241 23.1205 22.2208 22.7752C22.0443 22.6886 21.8589 22.6301 21.6443 22.5624C20.8356 22.3071 19.6345 21.9281 18.9832 19.9504L19.9668 19.5577C20.7937 19.2542 21.271 18.3911 21.0792 17.5362C20.9986 17.177 20.7917 16.8545 20.4966 16.628C20.2137 16.411 19.8612 16.2914 19.5037 16.2914C19.3799 16.2914 19.256 16.3056 19.1354 16.3336L18.8069 16.4098C18.7903 16.03 18.7818 15.6333 18.7813 15.2245C18.7803 14.3913 18.6109 13.5791 18.2777 12.8104C17.958 12.0725 17.5025 11.4081 16.9239 10.8356C16.3453 10.2631 15.674 9.81257 14.9286 9.49653C14.1522 9.16736 13.3321 9.00031 12.4911 9Z"/>
</mask>
<path d="M6.86581 15.9599C6.45606 11.0958 10.2804 9.71084 12.2439 9.6264L15.061 10.1331L17.1098 11.6531L18.1341 13.6799L18.3902 16.9733L19.1585 16.7199L20.439 17.2266V18.24L19.9268 19L18.3902 19.76L18.9024 21.0268L20.439 22.5468L22.4878 23.8135L21.9756 24.5735L20.1829 25.3336L19.4146 26.6003L18.6463 26.8536H16.5976L12.7561 28.3736H11.7317L8.40244 26.8536H5.84146L5.07317 25.8402L4.81707 25.3336L2.76829 24.5735L2.5122 23.8135L3.02439 23.3068L5.32927 22.0401L6.60976 20.2667L6.35366 19.5067L4.81707 18.7467L4.30488 17.7333L5.07317 16.9733H6.60976L6.86581 15.9599Z" fill="#FFFA54"/>
<path d="M12.4907 10.1089C15.3092 10.1098 17.6569 12.431 17.6603 15.2259C17.6611 15.8805 17.6815 16.4833 17.7189 17.0386C17.7419 17.3812 18.03 17.6351 18.3603 17.6351C18.4089 17.6351 18.4585 17.6296 18.5083 17.6181L19.3912 17.4134C19.4288 17.4046 19.4665 17.4005 19.5037 17.4005C19.728 17.4005 19.9345 17.552 19.9848 17.7765C20.056 18.0937 19.8763 18.4143 19.5656 18.5221L18.2253 19.0573C17.887 19.1924 17.7052 19.5567 17.8005 19.9051C18.8758 23.8375 21.8791 23.4286 21.8791 23.9409C21.8791 24.5842 19.6153 24.6751 19.4108 24.8774C19.2063 25.0798 19.402 26.0618 18.945 26.2519C18.8589 26.2878 18.7365 26.3002 18.5872 26.3002C18.243 26.3002 17.7563 26.2338 17.2432 26.2338C16.7982 26.2338 16.3334 26.2838 15.9248 26.4705C14.8407 26.9659 13.7956 27.8912 12.5 27.8912C11.2044 27.8912 10.1593 26.9659 9.07529 26.4705C8.66657 26.2837 8.20191 26.2338 7.75683 26.2338C7.24382 26.2338 6.75696 26.3002 6.41282 26.3002C6.26364 26.3002 6.14113 26.2877 6.05504 26.2519C5.59809 26.0618 5.79372 25.0798 5.58921 24.8774C5.3847 24.6751 3.12098 24.5842 3.12098 23.9409C3.12098 23.4285 6.12428 23.8375 7.19952 19.9051C7.29481 19.5567 7.11307 19.1924 6.77467 19.0572L5.43442 18.522C5.12364 18.4142 4.94397 18.0937 5.01518 17.7765C5.06553 17.5519 5.27201 17.4004 5.49626 17.4004C5.53347 17.4004 5.57123 17.4046 5.6088 17.4133L6.49173 17.6181C6.54151 17.6296 6.59105 17.6351 6.6397 17.6351C6.96999 17.6351 7.25808 17.3812 7.28113 17.0386C7.31848 16.4833 7.33893 15.8805 7.33973 15.2259C7.34314 12.431 9.67219 10.1099 12.4907 10.1089ZM12.4911 9H12.4902C11.649 9.00027 10.8294 9.16749 10.0545 9.49706C9.31069 9.81337 8.64124 10.2644 8.06479 10.8376C7.48909 11.4101 7.03604 12.0747 6.71822 12.8129C6.38775 13.5806 6.21969 14.392 6.21866 15.2245C6.21817 15.6333 6.2096 16.03 6.1931 16.4098L5.86461 16.3336C5.74408 16.3057 5.62015 16.2915 5.49635 16.2914C5.13884 16.2914 4.78618 16.4109 4.50333 16.628C4.20825 16.8545 4.00131 17.177 3.92074 17.5362C3.72896 18.3911 4.20614 19.2541 5.03307 19.5576L6.01671 19.9504C5.36537 21.9281 4.16435 22.3071 3.35558 22.5623C3.14098 22.6301 2.95562 22.6886 2.77913 22.7752C2.07591 23.1205 2 23.7054 2 23.9409C2 24.3918 2.21577 24.8034 2.60762 25.0996C2.80271 25.2472 3.0444 25.3689 3.34644 25.4717C3.7581 25.6119 4.23533 25.7009 4.62319 25.7722C4.64193 25.9144 4.66942 26.0671 4.71574 26.221C4.90805 26.8603 5.31389 27.1465 5.62051 27.274C5.91142 27.3951 6.21203 27.4091 6.41282 27.4091C6.60921 27.4091 6.81682 27.3938 7.03662 27.3777C7.27243 27.3604 7.51627 27.3426 7.75683 27.3426C8.12962 27.3426 8.40713 27.3866 8.60519 27.4771C8.87714 27.6014 9.16555 27.769 9.4709 27.9463C10.321 28.4402 11.2844 29 12.5 29C13.7156 29 14.679 28.4402 15.5291 27.9463C15.8345 27.7689 16.1229 27.6014 16.3949 27.4771C16.5929 27.3866 16.8704 27.3426 17.2432 27.3426C17.4838 27.3426 17.7276 27.3605 17.9634 27.3777C18.1832 27.3938 18.3908 27.4091 18.5872 27.4091C18.788 27.4091 19.0885 27.3951 19.3795 27.274C19.6861 27.1465 20.0919 26.8603 20.2843 26.221C20.3306 26.0671 20.3581 25.9144 20.3768 25.7722C20.7647 25.7009 21.2419 25.6119 21.6536 25.4717C21.9556 25.3689 22.1973 25.2472 22.3924 25.0996C22.7842 24.8034 23 24.3918 23 23.9409C23 23.7054 22.9241 23.1205 22.2208 22.7752C22.0443 22.6886 21.8589 22.6301 21.6443 22.5624C20.8356 22.3071 19.6345 21.9281 18.9832 19.9504L19.9668 19.5577C20.7937 19.2542 21.271 18.3911 21.0792 17.5362C20.9986 17.177 20.7917 16.8545 20.4966 16.628C20.2137 16.411 19.8612 16.2914 19.5037 16.2914C19.3799 16.2914 19.256 16.3056 19.1354 16.3336L18.8069 16.4098C18.7903 16.03 18.7818 15.6333 18.7813 15.2245C18.7803 14.3913 18.6109 13.5791 18.2777 12.8104C17.958 12.0725 17.5025 11.4081 16.9239 10.8356C16.3453 10.2631 15.674 9.81257 14.9286 9.49653C14.1522 9.16736 13.3321 9.00031 12.4911 9Z" fill="#FFFA54"/>
<path d="M6.86581 15.9599C6.45606 11.0958 10.2804 9.71084 12.2439 9.6264L15.061 10.1331L17.1098 11.6531L18.1341 13.6799L18.3902 16.9733L19.1585 16.7199L20.439 17.2266V18.24L19.9268 19L18.3902 19.76L18.9024 21.0268L20.439 22.5468L22.4878 23.8135L21.9756 24.5735L20.1829 25.3336L19.4146 26.6003L18.6463 26.8536H16.5976L12.7561 28.3736H11.7317L8.40244 26.8536H5.84146L5.07317 25.8402L4.81707 25.3336L2.76829 24.5735L2.5122 23.8135L3.02439 23.3068L5.32927 22.0401L6.60976 20.2667L6.35366 19.5067L4.81707 18.7467L4.30488 17.7333L5.07317 16.9733H6.60976L6.86581 15.9599Z" stroke="black" stroke-width="4" mask="url(#path-1-outside-1)"/>
<path d="M12.4907 10.1089C15.3092 10.1098 17.6569 12.431 17.6603 15.2259C17.6611 15.8805 17.6815 16.4833 17.7189 17.0386C17.7419 17.3812 18.03 17.6351 18.3603 17.6351C18.4089 17.6351 18.4585 17.6296 18.5083 17.6181L19.3912 17.4134C19.4288 17.4046 19.4665 17.4005 19.5037 17.4005C19.728 17.4005 19.9345 17.552 19.9848 17.7765C20.056 18.0937 19.8763 18.4143 19.5656 18.5221L18.2253 19.0573C17.887 19.1924 17.7052 19.5567 17.8005 19.9051C18.8758 23.8375 21.8791 23.4286 21.8791 23.9409C21.8791 24.5842 19.6153 24.6751 19.4108 24.8774C19.2063 25.0798 19.402 26.0618 18.945 26.2519C18.8589 26.2878 18.7365 26.3002 18.5872 26.3002C18.243 26.3002 17.7563 26.2338 17.2432 26.2338C16.7982 26.2338 16.3334 26.2838 15.9248 26.4705C14.8407 26.9659 13.7956 27.8912 12.5 27.8912C11.2044 27.8912 10.1593 26.9659 9.07529 26.4705C8.66657 26.2837 8.20191 26.2338 7.75683 26.2338C7.24382 26.2338 6.75696 26.3002 6.41282 26.3002C6.26364 26.3002 6.14113 26.2877 6.05504 26.2519C5.59809 26.0618 5.79372 25.0798 5.58921 24.8774C5.3847 24.6751 3.12098 24.5842 3.12098 23.9409C3.12098 23.4285 6.12428 23.8375 7.19952 19.9051C7.29481 19.5567 7.11307 19.1924 6.77467 19.0572L5.43442 18.522C5.12364 18.4142 4.94397 18.0937 5.01518 17.7765C5.06553 17.5519 5.27201 17.4004 5.49626 17.4004C5.53347 17.4004 5.57123 17.4046 5.6088 17.4133L6.49173 17.6181C6.54151 17.6296 6.59105 17.6351 6.6397 17.6351C6.96999 17.6351 7.25808 17.3812 7.28113 17.0386C7.31848 16.4833 7.33893 15.8805 7.33973 15.2259C7.34314 12.431 9.67219 10.1099 12.4907 10.1089ZM12.4911 9H12.4902C11.649 9.00027 10.8294 9.16749 10.0545 9.49706C9.31069 9.81337 8.64124 10.2644 8.06479 10.8376C7.48909 11.4101 7.03604 12.0747 6.71822 12.8129C6.38775 13.5806 6.21969 14.392 6.21866 15.2245C6.21817 15.6333 6.2096 16.03 6.1931 16.4098L5.86461 16.3336C5.74408 16.3057 5.62015 16.2915 5.49635 16.2914C5.13884 16.2914 4.78618 16.4109 4.50333 16.628C4.20825 16.8545 4.00131 17.177 3.92074 17.5362C3.72896 18.3911 4.20614 19.2541 5.03307 19.5576L6.01671 19.9504C5.36537 21.9281 4.16435 22.3071 3.35558 22.5623C3.14098 22.6301 2.95562 22.6886 2.77913 22.7752C2.07591 23.1205 2 23.7054 2 23.9409C2 24.3918 2.21577 24.8034 2.60762 25.0996C2.80271 25.2472 3.0444 25.3689 3.34644 25.4717C3.7581 25.6119 4.23533 25.7009 4.62319 25.7722C4.64193 25.9144 4.66942 26.0671 4.71574 26.221C4.90805 26.8603 5.31389 27.1465 5.62051 27.274C5.91142 27.3951 6.21203 27.4091 6.41282 27.4091C6.60921 27.4091 6.81682 27.3938 7.03662 27.3777C7.27243 27.3604 7.51627 27.3426 7.75683 27.3426C8.12962 27.3426 8.40713 27.3866 8.60519 27.4771C8.87714 27.6014 9.16555 27.769 9.4709 27.9463C10.321 28.4402 11.2844 29 12.5 29C13.7156 29 14.679 28.4402 15.5291 27.9463C15.8345 27.7689 16.1229 27.6014 16.3949 27.4771C16.5929 27.3866 16.8704 27.3426 17.2432 27.3426C17.4838 27.3426 17.7276 27.3605 17.9634 27.3777C18.1832 27.3938 18.3908 27.4091 18.5872 27.4091C18.788 27.4091 19.0885 27.3951 19.3795 27.274C19.6861 27.1465 20.0919 26.8603 20.2843 26.221C20.3306 26.0671 20.3581 25.9144 20.3768 25.7722C20.7647 25.7009 21.2419 25.6119 21.6536 25.4717C21.9556 25.3689 22.1973 25.2472 22.3924 25.0996C22.7842 24.8034 23 24.3918 23 23.9409C23 23.7054 22.9241 23.1205 22.2208 22.7752C22.0443 22.6886 21.8589 22.6301 21.6443 22.5624C20.8356 22.3071 19.6345 21.9281 18.9832 19.9504L19.9668 19.5577C20.7937 19.2542 21.271 18.3911 21.0792 17.5362C20.9986 17.177 20.7917 16.8545 20.4966 16.628C20.2137 16.411 19.8612 16.2914 19.5037 16.2914C19.3799 16.2914 19.256 16.3056 19.1354 16.3336L18.8069 16.4098C18.7903 16.03 18.7818 15.6333 18.7813 15.2245C18.7803 14.3913 18.6109 13.5791 18.2777 12.8104C17.958 12.0725 17.5025 11.4081 16.9239 10.8356C16.3453 10.2631 15.674 9.81257 14.9286 9.49653C14.1522 9.16736 13.3321 9.00031 12.4911 9Z" stroke="black" stroke-width="4" mask="url(#path-1-outside-1)"/>
<path d="M38.48 16.6063C35.18 15.5863 34.4 14.9563 34.4 13.9663C34.4 12.5863 35.93 11.9863 37.61 12.0163C39.14 12.0463 40.85 12.7663 41.12 14.0863L44.66 12.7663C44.06 9.76627 40.79 8.05627 37.58 8.05627C32.18 8.05627 30.17 11.3563 30.17 14.1163C30.17 17.2063 32.15 19.0363 36.98 20.4763C40.4 21.4963 41.42 22.0363 41.42 23.2963C41.42 24.5863 40.1 25.5463 37.67 25.5463C35.48 25.5463 33.65 24.5563 33.26 22.9663L29.6 24.3763C30.2 27.4063 33.92 29.5963 38.03 29.5963C43.25 29.5963 45.68 26.6263 45.68 23.1463C45.68 19.2463 42.62 17.8663 38.48 16.6063ZM60.4416 8.23627V21.8563L51.9816 8.23627H48.0816V29.2363H52.0716V15.6163L60.5016 29.2363H64.4316V8.23627H60.4416ZM75.5098 8.23627H67.7398V29.2363H71.7298V22.0363H75.5098C80.1898 22.0363 82.7998 18.9763 82.7998 15.1363C82.7998 11.2963 80.1898 8.23627 75.5098 8.23627ZM75.4198 18.2263H71.7298V12.0763H75.4198C77.3998 12.0763 78.6898 13.3363 78.6898 15.1363C78.6898 16.9363 77.3998 18.2263 75.4198 18.2263ZM93.1773 16.6063C89.8773 15.5863 89.0973 14.9563 89.0973 13.9663C89.0973 12.5863 90.6273 11.9863 92.3073 12.0163C93.8373 12.0463 95.5473 12.7663 95.8173 14.0863L99.3573 12.7663C98.7573 9.76627 95.4873 8.05627 92.2773 8.05627C86.8773 8.05627 84.8673 11.3563 84.8673 14.1163C84.8673 17.2063 86.8473 19.0363 91.6773 20.4763C95.0973 21.4963 96.1173 22.0363 96.1173 23.2963C96.1173 24.5863 94.7973 25.5463 92.3673 25.5463C90.1773 25.5463 88.3473 24.5563 87.9573 22.9663L84.2973 24.3763C84.8973 27.4063 88.6173 29.5963 92.7273 29.5963C97.9473 29.5963 100.377 26.6263 100.377 23.1463C100.377 19.2463 97.3173 17.8663 93.1773 16.6063ZM116.391 8.23627H101.121V12.0763H106.761V29.2363H110.751V12.0763H116.391V8.23627ZM130.108 29.2363H134.638L126.958 8.23627H122.878L115.198 29.2363H119.728L121.348 24.4963H128.458L130.108 29.2363ZM122.698 20.6863L124.918 14.2363L127.138 20.6863H122.698ZM148.705 8.23627H133.435V12.0763H139.075V29.2363H143.065V12.0763H148.705V8.23627Z" fill="black"/>
</svg>
