<svg width="17" height="11" viewBox="0 0 17 11" fill="none" xmlns="http://www.w3.org/2000/svg">
<path fill-rule="evenodd" clip-rule="evenodd" d="M5.3099 2.16644C3.55035 2.16644 2.12396 3.62136 2.12396 5.41609C2.12396 7.21083 3.55035 8.66575 5.3099 8.66575C7.06944 8.66575 8.49584 7.21083 8.49584 5.41609C8.49584 3.62136 7.06944 2.16644 5.3099 2.16644ZM0 5.41609C0 2.42487 2.37732 0 5.3099 0C8.24247 0 10.6198 2.42487 10.6198 5.41609C10.6198 8.40732 8.24247 10.8322 5.3099 10.8322C2.37732 10.8322 0 8.40732 0 5.41609Z" fill="black"/>
<path fill-rule="evenodd" clip-rule="evenodd" d="M11.715 0.955358C11.8604 0.375808 12.439 0.0262823 13.0072 0.174671C14.1493 0.472964 15.1617 1.15052 15.8847 2.10051C16.6076 3.05051 17 4.21891 17 5.42151C17 6.62412 16.6076 7.79252 15.8847 8.74251C15.1617 9.69251 14.1493 10.3701 13.0072 10.6684C12.439 10.8167 11.8604 10.4672 11.715 9.88766C11.5695 9.30812 11.9122 8.71801 12.4803 8.56962C13.1656 8.39064 13.7731 7.98411 14.2068 7.41411C14.6406 6.84411 14.876 6.14307 14.876 5.42151C14.876 4.69995 14.6406 3.99891 14.2068 3.42891C13.7731 2.85891 13.1656 2.45238 12.4803 2.27341C11.9122 2.12502 11.5695 1.53491 11.715 0.955358Z" fill="black"/>
</svg>
