<svg width="17" height="15" viewBox="0 0 17 15" fill="none" xmlns="http://www.w3.org/2000/svg">
<path fill-rule="evenodd" clip-rule="evenodd" d="M1.03733 9.72808C1.70152 9.0506 2.60236 8.67 3.54167 8.67H9.20833C10.1476 8.67 11.0485 9.0506 11.7127 9.72808C12.3769 10.4056 12.75 11.3244 12.75 12.2825V13.7275C12.75 14.1265 12.4329 14.45 12.0417 14.45C11.6505 14.45 11.3333 14.1265 11.3333 13.7275V12.2825C11.3333 11.7076 11.1094 11.1563 10.7109 10.7498C10.3124 10.3434 9.77192 10.115 9.20833 10.115H3.54167C2.97808 10.115 2.43758 10.3434 2.03906 10.7498C1.64055 11.1563 1.41667 11.7076 1.41667 12.2825V13.7275C1.41667 14.1265 1.09953 14.45 0.708333 14.45C0.317132 14.45 0 14.1265 0 13.7275V12.2825C0 11.3244 0.373139 10.4056 1.03733 9.72808Z" fill="black"/>
<path fill-rule="evenodd" clip-rule="evenodd" d="M6.375 1.445C5.20139 1.445 4.25 2.41542 4.25 3.6125C4.25 4.80958 5.20139 5.78 6.375 5.78C7.5486 5.78 8.5 4.80958 8.5 3.6125C8.5 2.41542 7.5486 1.445 6.375 1.445ZM2.83333 3.6125C2.83333 1.61737 4.41899 0 6.375 0C8.33101 0 9.91667 1.61737 9.91667 3.6125C9.91667 5.60763 8.33101 7.225 6.375 7.225C4.41899 7.225 2.83333 5.60763 2.83333 3.6125Z" fill="black"/>
<path fill-rule="evenodd" clip-rule="evenodd" d="M13.4808 9.3058C13.5786 8.91945 13.965 8.68711 14.3438 8.78687C15.1036 8.98697 15.7767 9.4388 16.2575 10.0714C16.7382 10.704 16.9994 11.4815 17 12.282V13.7275C17 14.1265 16.6829 14.45 16.2917 14.45C15.9005 14.45 15.5833 14.1265 15.5833 13.7275V12.283C15.5829 11.8029 15.4262 11.3362 15.1378 10.9567C14.8493 10.5771 14.4455 10.306 13.9896 10.186C13.6108 10.0862 13.383 9.69215 13.4808 9.3058Z" fill="black"/>
<path fill-rule="evenodd" clip-rule="evenodd" d="M10.6471 0.637218C10.7442 0.250662 11.1301 0.0175302 11.509 0.116504C12.2709 0.315464 12.9461 0.767387 13.4283 1.40103C13.9105 2.03467 14.1722 2.81398 14.1722 3.61611C14.1722 4.41824 13.9105 5.19756 13.4283 5.8312C12.9461 6.46484 12.2709 6.91676 11.509 7.11572C11.1301 7.2147 10.7442 6.98156 10.6471 6.59501C10.5501 6.20845 10.7787 5.81485 11.1576 5.71588C11.6147 5.5965 12.0199 5.32535 12.3092 4.94516C12.5985 4.56498 12.7556 4.09739 12.7556 3.61611C12.7556 3.13484 12.5985 2.66725 12.3092 2.28706C12.0199 1.90688 11.6147 1.63572 11.1576 1.51635C10.7787 1.41737 10.5501 1.02377 10.6471 0.637218Z" fill="black"/>
</svg>
